<mxfile host="Electron" agent="Mozilla/5.0 (Windows NT 10.0; Win64; x64) AppleWebKit/537.36 (KHTML, like Gecko) draw.io/28.0.4 Chrome/138.0.7204.97 Electron/37.2.1 Safari/537.36" version="28.0.4">
  <diagram name="Page-1" id="gLj3V5wU64BBhGa2zPqV">
    <mxGraphModel dx="1426" dy="841" grid="1" gridSize="10" guides="1" tooltips="1" connect="1" arrows="1" fold="1" page="1" pageScale="1" pageWidth="1169" pageHeight="1654" math="0" shadow="0">
      <root>
        <mxCell id="0" />
        <mxCell id="1" parent="0" />
        <mxCell id="28-LAATM8kHw7nCOFZkA-21" value="" style="rounded=1;whiteSpace=wrap;html=1;fillColor=#f8cecc;strokeColor=#b85450;" parent="1" vertex="1">
          <mxGeometry x="20" y="160" width="240" height="600" as="geometry" />
        </mxCell>
        <mxCell id="28-LAATM8kHw7nCOFZkA-17" value="" style="rounded=1;whiteSpace=wrap;html=1;fillColor=#fff2cc;strokeColor=#d6b656;" parent="1" vertex="1">
          <mxGeometry x="810" y="160" width="410" height="600" as="geometry" />
        </mxCell>
        <mxCell id="28-LAATM8kHw7nCOFZkA-3" value="Contract DB" style="image;aspect=fixed;perimeter=ellipsePerimeter;html=1;align=center;shadow=0;dashed=0;spacingTop=3;image=img/lib/active_directory/database.svg;" parent="1" vertex="1">
          <mxGeometry x="1128.21" y="497.5" width="50" height="37" as="geometry" />
        </mxCell>
        <mxCell id="28-LAATM8kHw7nCOFZkA-4" value="User DB" style="image;aspect=fixed;perimeter=ellipsePerimeter;html=1;align=center;shadow=0;dashed=0;spacingTop=3;image=img/lib/active_directory/database.svg;" parent="1" vertex="1">
          <mxGeometry x="1121.29" y="362.5" width="50" height="37" as="geometry" />
        </mxCell>
        <mxCell id="28-LAATM8kHw7nCOFZkA-5" style="edgeStyle=orthogonalEdgeStyle;rounded=0;orthogonalLoop=1;jettySize=auto;html=1;exitX=0.5;exitY=1;exitDx=0;exitDy=0;" parent="1" source="28-LAATM8kHw7nCOFZkA-3" target="28-LAATM8kHw7nCOFZkA-3" edge="1">
          <mxGeometry relative="1" as="geometry" />
        </mxCell>
        <mxCell id="28-LAATM8kHw7nCOFZkA-50" style="edgeStyle=orthogonalEdgeStyle;rounded=0;orthogonalLoop=1;jettySize=auto;html=1;startArrow=none;startFill=0;" parent="1" source="28-LAATM8kHw7nCOFZkA-7" target="28-LAATM8kHw7nCOFZkA-4" edge="1">
          <mxGeometry relative="1" as="geometry" />
        </mxCell>
        <mxCell id="nIJ8ht-ikDi0R1mNNW38-15" value="5. GET User ID" style="edgeLabel;html=1;align=center;verticalAlign=middle;resizable=0;points=[];" vertex="1" connectable="0" parent="28-LAATM8kHw7nCOFZkA-50">
          <mxGeometry x="0.1504" relative="1" as="geometry">
            <mxPoint x="-24" as="offset" />
          </mxGeometry>
        </mxCell>
        <mxCell id="28-LAATM8kHw7nCOFZkA-7" value="User API" style="image;aspect=fixed;perimeter=ellipsePerimeter;html=1;align=center;shadow=0;dashed=0;spacingTop=3;image=img/lib/active_directory/web_server.svg;" parent="1" vertex="1">
          <mxGeometry x="899.29" y="341" width="64" height="80" as="geometry" />
        </mxCell>
        <mxCell id="28-LAATM8kHw7nCOFZkA-46" style="edgeStyle=orthogonalEdgeStyle;rounded=0;orthogonalLoop=1;jettySize=auto;html=1;startArrow=none;startFill=0;" parent="1" source="28-LAATM8kHw7nCOFZkA-12" target="28-LAATM8kHw7nCOFZkA-3" edge="1">
          <mxGeometry relative="1" as="geometry" />
        </mxCell>
        <mxCell id="nIJ8ht-ikDi0R1mNNW38-14" value="7. GET Contracts" style="edgeLabel;html=1;align=center;verticalAlign=middle;resizable=0;points=[];" vertex="1" connectable="0" parent="28-LAATM8kHw7nCOFZkA-46">
          <mxGeometry x="0.0465" relative="1" as="geometry">
            <mxPoint x="-17" as="offset" />
          </mxGeometry>
        </mxCell>
        <mxCell id="28-LAATM8kHw7nCOFZkA-12" value="Contract List API" style="image;aspect=fixed;perimeter=ellipsePerimeter;html=1;align=center;shadow=0;dashed=0;spacingTop=3;image=img/lib/active_directory/web_server.svg;" parent="1" vertex="1">
          <mxGeometry x="899.29" y="476" width="64" height="80" as="geometry" />
        </mxCell>
        <mxCell id="28-LAATM8kHw7nCOFZkA-18" value="" style="rounded=1;whiteSpace=wrap;html=1;fillColor=#dae8fc;strokeColor=#6c8ebf;" parent="1" vertex="1">
          <mxGeometry x="300" y="160" width="380" height="600" as="geometry" />
        </mxCell>
        <mxCell id="28-LAATM8kHw7nCOFZkA-39" style="edgeStyle=orthogonalEdgeStyle;rounded=0;orthogonalLoop=1;jettySize=auto;html=1;" parent="1" source="28-LAATM8kHw7nCOFZkA-20" target="28-LAATM8kHw7nCOFZkA-12" edge="1">
          <mxGeometry relative="1" as="geometry">
            <Array as="points">
              <mxPoint x="420" y="449" />
              <mxPoint x="720" y="449" />
              <mxPoint x="720" y="380" />
            </Array>
          </mxGeometry>
        </mxCell>
        <mxCell id="28-LAATM8kHw7nCOFZkA-40" value="&lt;font&gt;6. GET Contracts&lt;/font&gt;" style="edgeLabel;html=1;align=center;verticalAlign=middle;resizable=0;points=[];fontSize=14;" parent="28-LAATM8kHw7nCOFZkA-39" vertex="1" connectable="0">
          <mxGeometry x="0.7484" y="-1" relative="1" as="geometry">
            <mxPoint x="-9" y="-21" as="offset" />
          </mxGeometry>
        </mxCell>
        <mxCell id="28-LAATM8kHw7nCOFZkA-55" style="edgeStyle=orthogonalEdgeStyle;rounded=0;orthogonalLoop=1;jettySize=auto;html=1;" parent="1" source="28-LAATM8kHw7nCOFZkA-20" target="28-LAATM8kHw7nCOFZkA-7" edge="1">
          <mxGeometry relative="1" as="geometry">
            <Array as="points">
              <mxPoint x="720" y="449" />
              <mxPoint x="720" y="390" />
            </Array>
          </mxGeometry>
        </mxCell>
        <mxCell id="28-LAATM8kHw7nCOFZkA-56" value="&lt;font&gt;Ha a user id nem volt&amp;nbsp;&lt;/font&gt;&lt;div&gt;&lt;font&gt;benne a cache-ben:&lt;/font&gt;&lt;div&gt;&lt;font&gt;4. GET User ID&lt;/font&gt;&lt;/div&gt;&lt;/div&gt;" style="edgeLabel;html=1;align=center;verticalAlign=middle;resizable=0;points=[];fontSize=11;" parent="28-LAATM8kHw7nCOFZkA-55" vertex="1" connectable="0">
          <mxGeometry x="0.7529" y="3" relative="1" as="geometry">
            <mxPoint x="-2" y="-27" as="offset" />
          </mxGeometry>
        </mxCell>
        <mxCell id="nIJ8ht-ikDi0R1mNNW38-4" style="edgeStyle=orthogonalEdgeStyle;rounded=0;orthogonalLoop=1;jettySize=auto;html=1;" edge="1" parent="1" source="28-LAATM8kHw7nCOFZkA-20" target="28-LAATM8kHw7nCOFZkA-27">
          <mxGeometry relative="1" as="geometry">
            <Array as="points">
              <mxPoint x="380" y="610" />
            </Array>
          </mxGeometry>
        </mxCell>
        <mxCell id="nIJ8ht-ikDi0R1mNNW38-5" value="&lt;font style=&quot;font-size: 16px;&quot;&gt;2. GET contracts&lt;/font&gt;" style="edgeLabel;html=1;align=center;verticalAlign=middle;resizable=0;points=[];" vertex="1" connectable="0" parent="nIJ8ht-ikDi0R1mNNW38-4">
          <mxGeometry x="0.4444" y="2" relative="1" as="geometry">
            <mxPoint x="-1" y="14" as="offset" />
          </mxGeometry>
        </mxCell>
        <mxCell id="nIJ8ht-ikDi0R1mNNW38-11" style="edgeStyle=orthogonalEdgeStyle;rounded=0;orthogonalLoop=1;jettySize=auto;html=1;dashed=1;" edge="1" parent="1" source="28-LAATM8kHw7nCOFZkA-20" target="28-LAATM8kHw7nCOFZkA-23">
          <mxGeometry relative="1" as="geometry">
            <Array as="points">
              <mxPoint x="388" y="357" />
            </Array>
          </mxGeometry>
        </mxCell>
        <mxCell id="nIJ8ht-ikDi0R1mNNW38-13" value="Ha a contractok benne&lt;div&gt;&amp;nbsp;voltak a cache-ben:&lt;/div&gt;&lt;div&gt;3. return contracts&lt;/div&gt;" style="edgeLabel;html=1;align=center;verticalAlign=middle;resizable=0;points=[];" vertex="1" connectable="0" parent="nIJ8ht-ikDi0R1mNNW38-11">
          <mxGeometry x="0.159" y="-1" relative="1" as="geometry">
            <mxPoint x="8" y="-25" as="offset" />
          </mxGeometry>
        </mxCell>
        <mxCell id="28-LAATM8kHw7nCOFZkA-20" value="Contract Viewer API" style="outlineConnect=0;dashed=0;verticalLabelPosition=bottom;verticalAlign=top;align=center;html=1;shape=mxgraph.aws3.api_gateway;fillColor=#D9A741;gradientColor=none;" parent="1" vertex="1">
          <mxGeometry x="350" y="402" width="76.5" height="93" as="geometry" />
        </mxCell>
        <mxCell id="28-LAATM8kHw7nCOFZkA-34" style="edgeStyle=orthogonalEdgeStyle;rounded=0;orthogonalLoop=1;jettySize=auto;html=1;" parent="1" source="28-LAATM8kHw7nCOFZkA-23" target="28-LAATM8kHw7nCOFZkA-20" edge="1">
          <mxGeometry relative="1" as="geometry">
            <Array as="points">
              <mxPoint x="270" y="450" />
              <mxPoint x="270" y="450" />
            </Array>
          </mxGeometry>
        </mxCell>
        <mxCell id="28-LAATM8kHw7nCOFZkA-35" value="&lt;font style=&quot;font-size: 16px;&quot;&gt;1.&amp;nbsp;&lt;/font&gt;&lt;span style=&quot;font-size: 16px; background-color: light-dark(#ffffff, var(--ge-dark-color, #121212)); color: light-dark(rgb(0, 0, 0), rgb(255, 255, 255));&quot;&gt;GET Contracts&lt;/span&gt;" style="edgeLabel;html=1;align=center;verticalAlign=middle;resizable=0;points=[];" parent="28-LAATM8kHw7nCOFZkA-34" vertex="1" connectable="0">
          <mxGeometry x="0.1865" y="2" relative="1" as="geometry">
            <mxPoint x="-20" y="1" as="offset" />
          </mxGeometry>
        </mxCell>
        <mxCell id="28-LAATM8kHw7nCOFZkA-23" value="Client" style="image;aspect=fixed;html=1;points=[];align=center;fontSize=12;image=img/lib/azure2/general/Browser.svg;" parent="1" vertex="1">
          <mxGeometry x="90" y="330.5" width="65" height="52" as="geometry" />
        </mxCell>
        <mxCell id="28-LAATM8kHw7nCOFZkA-27" value="" style="image;sketch=0;aspect=fixed;html=1;points=[];align=center;fontSize=12;image=img/lib/mscae/Cache_Redis_Product.svg;" parent="1" vertex="1">
          <mxGeometry x="610" y="580" width="50" height="42" as="geometry" />
        </mxCell>
        <mxCell id="28-LAATM8kHw7nCOFZkA-28" value="" style="endArrow=classic;html=1;rounded=0;startArrow=none;startFill=0;edgeStyle=orthogonalEdgeStyle;" parent="1" source="28-LAATM8kHw7nCOFZkA-20" target="28-LAATM8kHw7nCOFZkA-27" edge="1">
          <mxGeometry width="50" height="50" relative="1" as="geometry">
            <mxPoint x="460" y="450" as="sourcePoint" />
            <mxPoint x="510" y="400" as="targetPoint" />
            <Array as="points">
              <mxPoint x="400" y="590" />
            </Array>
          </mxGeometry>
        </mxCell>
        <mxCell id="nIJ8ht-ikDi0R1mNNW38-1" value="&lt;font&gt;Ha a contractok nem voltak&lt;/font&gt;&lt;div&gt;&lt;font&gt;&lt;font&gt;&amp;nbsp;benne&amp;nbsp;&lt;/font&gt;&lt;span style=&quot;background-color: light-dark(#ffffff, var(--ge-dark-color, #121212)); color: light-dark(rgb(0, 0, 0), rgb(255, 255, 255));&quot;&gt;a cache-ben:&lt;/span&gt;&lt;/font&gt;&lt;div&gt;&lt;div&gt;&lt;font&gt;3. GET user id&lt;/font&gt;&lt;/div&gt;&lt;/div&gt;&lt;/div&gt;" style="edgeLabel;html=1;align=center;verticalAlign=middle;resizable=0;points=[];fontSize=11;" vertex="1" connectable="0" parent="28-LAATM8kHw7nCOFZkA-28">
          <mxGeometry x="-0.1203" y="2" relative="1" as="geometry">
            <mxPoint x="71" y="-28" as="offset" />
          </mxGeometry>
        </mxCell>
      </root>
    </mxGraphModel>
  </diagram>
</mxfile>
